<svg version="1.2" xmlns="http://www.w3.org/2000/svg" viewBox="0 0 1469 312" width="512" height="109">
	<title>astrbot-logo-v1</title>
	<style>
		.s0 { fill: #080a41 } 
	</style>
	<path id="AstrBot" class="s0" aria-label="AstrBot"  d="m61.3 302h-51.2l120.9-294h33.6l120.2 294h-52.1l-22.3-56.7h-126.4zm86.1-215.9l-46.6 117.2h92.8zm239.1 220.1q-25.6 0-47.4-9.7-21.4-9.6-36.1-27.3l29.4-29.4q20.5 24.4 55 24.4 31.5 0 31.5-18.1 0-9.2-7.6-14.3-7.5-5-19.7-8.4-11.8-3.7-25.2-7.5-13-3.8-25.2-10.1-11.8-6.7-19.3-18.1-7.6-11.3-7.6-29.4 0-28.9 19.7-45.3 20.2-16.8 54.6-16.8 48.8 0 74.4 34.4l-29.4 29.4q-17.7-21.8-46.2-21.8-29 0-29 16.4 0 8.4 7.6 13 7.5 4.6 19.3 8 12.2 3.3 25.2 7.5 13.4 3.8 25.2 10.9 12.2 6.8 19.7 18.5 7.6 11.4 7.6 29.8 0 29.4-20.6 46.7-20.6 17.2-55.9 17.2zm191-4.2h-46.2v-159.6h-48.3v-42h48.3v-84h46.2v84h48.3v42h-48.3zm128.3 0h-46.2v-201.6h46.2v21q8.4-11.8 21.4-18.5 13.5-6.7 31.1-6.7 29.8 0 50 23.1l-30.3 31.1q-10.9-11-27.7-11-19.3 0-31.9 12.2-12.6 12.2-12.6 38.2zm254.6 0h-115.5v-294h111.7q29.8 0 49.6 11 19.7 10.9 29.4 28.1 9.6 17.2 9.6 37 0 37.8-34 60 21.9 12.2 34 31.1 12.2 18.9 12.2 43.3 0 22.6-11.3 41.5-10.9 18.9-32.8 30.7-21.4 11.3-52.9 11.3zm-5-252h-62.2v76.5h62.2q18.9 0 30.2-9.7 11.3-9.6 11.3-28.5 0-18.9-11.3-28.6-11.3-9.7-30.2-9.7zm7.1 118.5h-69.3v91.5h69.3q22.3 0 34.4-13.8 12.2-13.9 12.2-31.9 0-18.5-12.2-32-12.1-13.8-34.4-13.8zm229.5 137.7q-29.4 0-53.3-13.8-24-14.3-38.3-38.2-13.8-24-13.8-53.4 0-29.4 13.8-52.9 14.3-23.5 38.3-37.4 23.9-14.3 53.3-14.3 29.8 0 53.8 13.9 23.9 13.9 37.8 37.8 14.2 23.5 14.2 52.9 0 29.4-14.2 53.4-13.9 23.9-37.8 38.2-24 13.8-53.8 13.8zm0-44.5q26 0 42-16.8 16.4-17.2 16.4-44.1 0-26.4-16.4-43.2-16.4-16.8-42-16.8-25.6 0-42 17.2-16 16.8-16 42.8 0 26.9 16 44.1 16.4 16.8 42 16.8zm215.5 40.3h-46.2v-159.6h-48.3v-42h48.3v-84h46.2v84h48.3v42h-48.3z"/>
</svg>