<svg xmlns="http://www.w3.org/2000/svg" width="1746" height="277" viewBox="0 0 1746 277" class="cursor-pointer h-24 flex-shrink-0 w-110"><g fill="none" fill-rule="nonzero"><path fill="#0005DE" d="M97.705 6.742c58.844 0 90.962 34.353 90.962 98.341v21.843c-15.118-2.479-30.297-6.573-45.558-12.3v-9.543c0-35.97-15.564-56.281-45.404-56.281s-45.404 20.31-45.404 56.281v72.48c0 36.117 15.65 56.818 45.404 56.818 26.78 0 42.133-16.768 44.936-46.452q22.397 6.473 44.905 9.356c-6.15 51.52-37.492 79.155-89.841 79.155-58.678 0-90.963-34.72-90.963-98.878v-72.479c0-63.988 32.119-98.34 90.963-98.34m253.627 0c58.844 0 90.963 34.353 90.963 98.341v72.48c0 64.157-32.285 98.877-90.963 98.877-52.438 0-83.797-27.729-89.874-79.415 15-2.026 29.965-5.252 44.887-9.67 2.658 30.042 18.036 47.026 44.987 47.026 29.755 0 45.404-20.7 45.404-56.819v-72.479c0-35.97-15.564-56.281-45.404-56.281s-45.403 20.31-45.403 56.281v8.778c-15.262 5.868-30.44 10.104-45.559 12.725v-21.503c0-63.988 32.118-98.34 90.962-98.34m-164.37 140.026.57.09.831.127-.83-.128a234.5 234.5 0 0 0 35.979 2.79q18.408.002 36.858-2.928l1.401-.226a242 242 0 0 0 1.45-.244l-1.037.175q.729-.12 1.458-.247l-.421.072 1.26-.219-.84.147a244 244 0 0 0 2.8-.5l-.792.144q.648-.117 1.298-.239l-.506.094q.66-.122 1.322-.248l-.816.154q.759-.142 1.518-.289l-.702.135a247 247 0 0 0 5.364-1.084l-.463.098a250 250 0 0 0 3.928-.864l-.785.178 1.45-.33-.665.152q.597-.137 1.193-.276l-.528.123a253 253 0 0 0 3.685-.882l-.254.063q.683-.168 1.366-.34l-1.112.277q.809-.2 1.618-.405l-.506.128q.818-.206 1.634-.417l-1.128.289q.71-.18 1.419-.365l1.506-.397a259 259 0 0 0 1.804-.488l-.433.119a261 261 0 0 0 3.751-1.053l-.681.196a264 264 0 0 0 1.735-.502l-1.054.306q.636-.184 1.272-.37l-.218.064 1.238-.366-1.02.302a266 266 0 0 0 2.936-.882l-1.026.312q.71-.214 1.42-.433l-.394.121q.675-.207 1.35-.418l-.955.297q.8-.246 1.6-.499l-.645.202q.86-.269 1.72-.543l-1.076.341q.666-.21 1.33-.423l-.254.082q.833-.266 1.665-.539l-1.41.457q.874-.28 1.75-.568l-.34.111q.702-.229 1.403-.462l-1.063.351q.818-.269 1.634-.542l-.571.19a276 276 0 0 0 4.038-1.378l-.735.256q.657-.228 1.315-.46l-.58.204q16.86-5.903 33.78-14.256l-7.114-12.453 42.909 6.553-13.148 45.541-7.734-13.537q-23.832 11.94-47.755 19.504l-.199.063a298 298 0 0 1-11.65 3.412 288 288 0 0 1-10.39 2.603 280 280 0 0 1-11.677 2.431 273 273 0 0 1-11.643 1.903 263.5 263.5 0 0 1-36.858 2.599q-17.437 0-34.844-2.323l-.227-.03q-.635-.085-1.27-.174l1.497.204a268 268 0 0 1-13.673-2.182 275 275 0 0 1-12.817-2.697 282 282 0 0 1-11.859-3.057 291 291 0 0 1-7.21-2.123c-17.23-5.314-34.43-12.334-51.59-21.051l-8.258 14.455-13.148-45.541 42.909-6.553-6.594 11.544q18.421 9.24 36.776 15.572l1.316.45 1.373.462-.831-.278q.795.267 1.589.53l-.758-.252q.632.211 1.264.419l-.506-.167q.642.212 1.284.42l-.778-.253a271 271 0 0 0 3.914 1.251l-.227-.07a267 267 0 0 0 3.428 1.046l-.194-.058 1.315.389-1.121-.331q.864.256 1.73.508l-.609-.177q.826.241 1.651.478l-1.043-.3 1.307.375-.264-.075q.802.228 1.603.452l-1.34-.377q1.034.294 2.067.58l-.727-.203q.713.2 1.426.394l-.699-.192q.62.171 1.237.338l-.538-.146a259 259 0 0 0 3.977 1.051l-.66-.17q.683.177 1.367.35l-.707-.18q.687.175 1.373.348l-.666-.168q.738.186 1.475.368l-.809-.2q.716.179 1.43.353l-.621-.153a253 253 0 0 0 3.766.898l-.308-.07q.735.17 1.472.336l-1.164-.266q.747.173 1.496.34l-.332-.074q.845.19 1.69.374l-1.358-.3q.932.21 1.864.41l-.505-.11q.726.159 1.452.313l-.947-.203q.72.156 1.44.307l-.493-.104q.684.144 1.368.286l-.875-.182q.743.155 1.485.306l-.61-.124q.932.192 1.864.376l-1.254-.252q.904.184 1.809.361l-.555-.109q.752.15 1.504.293l-.95-.184q.69.135 1.377.265l-.427-.081q.784.15 1.569.295l-1.142-.214q.717.136 1.434.268l-.292-.054a244 244 0 0 0 3.808.673l-.68-.116 1.063.18-.383-.064q1.076.18 2.152.352z"></path><path fill="#000" d="M758.196 6.742V213.79q0 9.844-1.64 17.602-1.642 7.757-6.117 14.171t-12.38 12.232q-.87.64-1.977 1.393v.001a60.7 60.7 0 0 1-34.131 10.51h-6.406v-33.383c9.507-1.946 14.32-6.416 17.9-10.592q5.37-6.265 5.37-16.11V13.484zm71.9 216.594q-4.476-15.215-10.89-35.652a2502 2502 0 0 0-13.574-41.916 5069 5069 0 0 0-14.171-41.917q-7.01-20.436-12.68-36.248L815.18 55.67q5.669 14.022 12.977 33.563a3308 3308 0 0 1 14.917 40.723 2129 2129 0 0 1 14.619 42.066q7.01 20.883 12.38 37.59zM688.386 66.41q-3.88 18.795-9.25 38.933a739 739 0 0 1-11.933 40.127 753 753 0 0 1-14.022 39.082q-7.458 19.094-15.513 35.502l-37.59-14.917q8.054-16.11 15.363-34.607a584 584 0 0 0 13.426-37.74 652 652 0 0 0 10.889-38.187q4.773-18.945 8.055-35.95zm425.43 88.189H967.33q-11.636 0-18.348-1.94-6.712-1.938-10.143-5.966t-4.177-9.845q-.745-5.818.15-13.873l6.264-56.804 40.574-6.742-5.668 60.264H1080.7V48.39H922.282V13.485h161.401q19.69 0 27.745 8.204t8.056 25.508v72.496h6.861q12.232.597 20.138 8.205 7.905 7.607 7.906 21.032v65.336q0 10.145-1.94 18.05t-6.86 14.768q-4.924 6.861-13.724 13.126-1.917 1.365-4.985 3.175l.002.003a67.4 67.4 0 0 1-34.258 9.353h-4.466v-37.255c10.56-3.17 16.21-5.11 19.989-9.286q5.668-6.265 5.668-16.409zm-210.33 58.772v-34.607h197.202v34.607zM1420.627 50.3a430 430 0 0 0 5.52 5.967q2.535 2.684 4.027 4.773l-24.166 13.724h5.669q16.409 0 22.673 7.607 6.266 7.608 6.266 23.121v84.728h-35.801v-6.563h-142.307v6.563h-35.8V72.078a80 80 0 0 1-11.934.895h-9.547V41.946h5.668q10.442 0 15.365-7.01 4.922-7.012 4.922-19.243v-2.208l37.59-6.743v12.53q0 1.791-.297 3.282h61.457v19.094q8.055-1.492 11.784-8.353 3.73-6.862 3.73-17.602v-2.208l37.59-6.743v12.53q0 1.791-.298 3.282h79.955V50.3zm-17.602 181.091v38.784h-35.204V231.39h-71.004q-2.686 11.635-7.906 19.541-5.22 7.905-12.829 12.68-7.608 4.773-17.602 6.861t-21.63 2.089h-11.933v-31.624h9.547q6.265 0 11.784-2.238t9.398-7.309h-55.49v-30.43h62.948v-12.83h36.398v12.83h68.32v-12.83h35.203v12.83h63.248v30.43zM1262.507 98.332v9.249h142.307v-9.249zm24.165-23.568h114.86q-3.579-4.476-9.696-11.487-6.116-7.01-11.187-12.977h-5.37q-6.862 11.933-18.945 17.303t-27.298 5.37h-10.442V50.3h-19.69l9.845 10.74zm-24.165 59.667h142.307v-7.757h-142.307zm0 26.254h142.307v-7.459h-142.307zm0-88.607v2.686h13.723l-18.198-20.287q-5.67 7.756-13.575 11.933t-17.75 5.668zm248.217-15.513h64.74v-43.08l40.573-6.743v49.823h92.783q21.183 0 29.834 9.994t8.652 27.895v123.512q0 8.652-2.238 16.11-2.236 7.458-7.458 14.022-5.22 6.564-13.724 12.53-2.143 1.504-5.673 3.578a60.7 60.7 0 0 1-30.726 8.356h-8.202v-36.63c11.653-1.408 16.856-4.541 21.331-9.314q6.713-7.161 6.713-16.11V95.347h-91.292v31.923q0 36.398-8.055 63.098-8.055 26.702-21.48 44.155t-31.177 25.955q-17.75 8.502-36.844 8.503h-14.917v-39.083h12.232q10.143 0 20.883-5.668 10.74-5.67 19.243-18.05 8.504-12.381 14.022-31.773 5.52-19.392 5.52-47.137V95.349h-64.74z"></path></g></svg>